<svg width="434" height="434" viewBox="0 0 434 434" fill="none" xmlns="http://www.w3.org/2000/svg">
<mask id="mask0_3_4" style="mask-type:alpha" maskUnits="userSpaceOnUse" x="0" y="0" width="434" height="434">
<circle cx="217" cy="217" r="217" fill="#D9D9D9"/>
</mask>
<g mask="url(#mask0_3_4)">
<circle cx="217" cy="217" r="211" stroke="#CAF2FF" stroke-width="12"/>
<path d="M229 386C240.046 386 249 377.046 249 366C249 354.954 240.046 346 229 346L229 386ZM-475 386L229 386L229 346L-475 346L-475 386Z" fill="#CAF2FF"/>
<path d="M260 234C271.046 234 280 225.046 280 214C280 202.954 271.046 194 260 194L260 234ZM-444 234L260 234L260 194L-444 194L-444 234Z" fill="#CAF2FF"/>
<path d="M229 82.0001C240.046 82.0001 249 73.0458 249 62.0001C249 50.9544 240.046 42.0001 229 42.0001L229 82.0001ZM-475 82L229 82.0001L229 42.0001L-475 42L-475 82Z" fill="#CAF2FF"/>
<path d="M239 310C250.046 310 259 301.046 259 290C259 278.954 250.046 270 239 270L239 310ZM-465 310L239 310L239 270L-465 270L-465 310Z" fill="#CAF2FF"/>
<path d="M243 158C254.046 158 263 149.046 263 138C263 126.954 254.046 118 243 118L243 158ZM-461 158L243 158L243 118L-461 118L-461 158Z" fill="#CAF2FF"/>
<path d="M229 10.0001C240.046 10.0001 249 1.04576 249 -9.99994C249 -21.0456 240.046 -29.9999 229 -29.9999L229 10.0001ZM-475 10L229 10.0001L229 -29.9999L-475 -30L-475 10Z" fill="#CAF2FF"/>
<path fill-rule="evenodd" clip-rule="evenodd" d="M-538 423L166 423C166.257 423 166.513 422.995 166.767 422.985C156.888 422.583 149 414.237 149 404C149 393.763 156.888 385.418 166.765 385.015C166.512 385.005 166.256 385 166 385L-538 385V423Z" fill="#CAF2FF"/>
<path fill-rule="evenodd" clip-rule="evenodd" d="M-507 271L197 271C197.257 271 197.513 270.995 197.767 270.985C187.888 270.583 180 262.237 180 252C180 241.763 187.888 233.418 197.765 233.015C197.512 233.005 197.256 233 197 233L-507 233V271Z" fill="#CAF2FF"/>
<path fill-rule="evenodd" clip-rule="evenodd" d="M-538 119L166 119C166.257 119 166.513 118.995 166.767 118.985C156.888 118.583 149 110.237 149 100C149 89.7635 156.888 81.4177 166.765 81.0152C166.512 81.0051 166.256 81.0001 166 81.0001L-538 81V119Z" fill="#CAF2FF"/>
<path fill-rule="evenodd" clip-rule="evenodd" d="M-528 347L176 347C176.257 347 176.513 346.995 176.767 346.985C166.888 346.583 159 338.237 159 328C159 317.763 166.888 309.418 176.765 309.015C176.512 309.005 176.256 309 176 309L-528 309V347Z" fill="#CAF2FF"/>
<path fill-rule="evenodd" clip-rule="evenodd" d="M-524 195L180 195C180.257 195 180.513 194.995 180.767 194.985C170.888 194.583 163 186.237 163 176C163 165.763 170.888 157.418 180.765 157.015C180.512 157.005 180.256 157 180 157L-524 157V195Z" fill="#CAF2FF"/>
<path fill-rule="evenodd" clip-rule="evenodd" d="M-538 43L166 43.0001C166.257 43.0001 166.513 42.995 166.767 42.9849C156.888 42.5832 149 34.237 149 24C149 13.7635 156.888 5.4177 166.765 5.0152C166.512 5.00514 166.256 5.00006 166 5.00006L-538 5V43Z" fill="#CAF2FF"/>
</g>
</svg>
